<mxfile host="app.diagrams.net" agent="Mozilla/5.0 (Macintosh; Intel Mac OS X 10_15_7) AppleWebKit/537.36 (KHTML, like Gecko) Chrome/138.0.0.0 Safari/537.36" version="26.2.14">
  <diagram name="Page-1" id="52a04d89-c75d-2922-d76d-85b35f80e030">
    <mxGraphModel dx="1170" dy="669" grid="0" gridSize="10" guides="1" tooltips="1" connect="1" arrows="1" fold="1" page="1" pageScale="1" pageWidth="1100" pageHeight="850" background="none" math="0" shadow="0">
      <root>
        <mxCell id="0" />
        <mxCell id="1" parent="0" />
        <mxCell id="OdnS9hcuA0Ocz9xrUDnw-12" style="edgeStyle=orthogonalEdgeStyle;rounded=0;orthogonalLoop=1;jettySize=auto;html=1;entryX=0;entryY=0.5;entryDx=0;entryDy=0;" edge="1" parent="1" source="OdnS9hcuA0Ocz9xrUDnw-1" target="OdnS9hcuA0Ocz9xrUDnw-11">
          <mxGeometry relative="1" as="geometry" />
        </mxCell>
        <mxCell id="OdnS9hcuA0Ocz9xrUDnw-29" style="edgeStyle=orthogonalEdgeStyle;rounded=0;orthogonalLoop=1;jettySize=auto;html=1;entryX=0;entryY=0.5;entryDx=0;entryDy=0;" edge="1" parent="1" source="OdnS9hcuA0Ocz9xrUDnw-1" target="OdnS9hcuA0Ocz9xrUDnw-26">
          <mxGeometry relative="1" as="geometry" />
        </mxCell>
        <mxCell id="OdnS9hcuA0Ocz9xrUDnw-1" value="学习路径" style="rounded=1;whiteSpace=wrap;html=1;fillColor=#dae8fc;strokeColor=#6c8ebf;" vertex="1" parent="1">
          <mxGeometry x="80" y="230" width="90" height="40" as="geometry" />
        </mxCell>
        <mxCell id="OdnS9hcuA0Ocz9xrUDnw-30" style="edgeStyle=orthogonalEdgeStyle;rounded=0;orthogonalLoop=1;jettySize=auto;html=1;" edge="1" parent="1" source="OdnS9hcuA0Ocz9xrUDnw-11" target="OdnS9hcuA0Ocz9xrUDnw-23">
          <mxGeometry relative="1" as="geometry" />
        </mxCell>
        <mxCell id="OdnS9hcuA0Ocz9xrUDnw-31" style="edgeStyle=orthogonalEdgeStyle;rounded=0;orthogonalLoop=1;jettySize=auto;html=1;entryX=0;entryY=0.5;entryDx=0;entryDy=0;" edge="1" parent="1" source="OdnS9hcuA0Ocz9xrUDnw-11" target="OdnS9hcuA0Ocz9xrUDnw-21">
          <mxGeometry relative="1" as="geometry" />
        </mxCell>
        <mxCell id="OdnS9hcuA0Ocz9xrUDnw-32" value="能听懂、有天赋" style="edgeLabel;html=1;align=center;verticalAlign=middle;resizable=0;points=[];" vertex="1" connectable="0" parent="OdnS9hcuA0Ocz9xrUDnw-31">
          <mxGeometry x="0.0341" y="9" relative="1" as="geometry">
            <mxPoint x="4" y="-31" as="offset" />
          </mxGeometry>
        </mxCell>
        <mxCell id="OdnS9hcuA0Ocz9xrUDnw-47" style="edgeStyle=orthogonalEdgeStyle;rounded=0;orthogonalLoop=1;jettySize=auto;html=1;entryX=1;entryY=0.5;entryDx=0;entryDy=0;exitX=0.5;exitY=1;exitDx=0;exitDy=0;dashed=1;" edge="1" parent="1" source="OdnS9hcuA0Ocz9xrUDnw-11" target="OdnS9hcuA0Ocz9xrUDnw-26">
          <mxGeometry relative="1" as="geometry">
            <mxPoint x="540" y="302.5" as="sourcePoint" />
            <mxPoint x="400" y="407.5" as="targetPoint" />
          </mxGeometry>
        </mxCell>
        <mxCell id="OdnS9hcuA0Ocz9xrUDnw-11" value="c++试课" style="rhombus;whiteSpace=wrap;html=1;fillColor=#ffe6cc;strokeColor=#d79b00;" vertex="1" parent="1">
          <mxGeometry x="460" y="215" width="90" height="70" as="geometry" />
        </mxCell>
        <mxCell id="OdnS9hcuA0Ocz9xrUDnw-15" value="竞赛--&amp;gt;获奖证书" style="rounded=1;whiteSpace=wrap;html=1;fillColor=#d5e8d4;strokeColor=#82b366;" vertex="1" parent="1">
          <mxGeometry x="910" y="450" width="110" height="40" as="geometry" />
        </mxCell>
        <mxCell id="OdnS9hcuA0Ocz9xrUDnw-33" style="edgeStyle=orthogonalEdgeStyle;rounded=0;orthogonalLoop=1;jettySize=auto;html=1;entryX=0;entryY=0.5;entryDx=0;entryDy=0;" edge="1" parent="1" source="OdnS9hcuA0Ocz9xrUDnw-21" target="OdnS9hcuA0Ocz9xrUDnw-22">
          <mxGeometry relative="1" as="geometry" />
        </mxCell>
        <mxCell id="OdnS9hcuA0Ocz9xrUDnw-21" value="CCF编程能力等级认证" style="rounded=1;whiteSpace=wrap;html=1;fillColor=#e1d5e7;strokeColor=#9673a6;" vertex="1" parent="1">
          <mxGeometry x="620" y="90" width="90" height="40" as="geometry" />
        </mxCell>
        <mxCell id="OdnS9hcuA0Ocz9xrUDnw-22" value="七龙珠特长生招生考试" style="rounded=1;whiteSpace=wrap;html=1;fillColor=#d5e8d4;strokeColor=#82b366;" vertex="1" parent="1">
          <mxGeometry x="790" y="90" width="90" height="40" as="geometry" />
        </mxCell>
        <mxCell id="OdnS9hcuA0Ocz9xrUDnw-36" style="edgeStyle=orthogonalEdgeStyle;rounded=0;orthogonalLoop=1;jettySize=auto;html=1;entryX=1;entryY=0.5;entryDx=0;entryDy=0;exitX=0.5;exitY=1;exitDx=0;exitDy=0;dashed=1;" edge="1" parent="1" source="OdnS9hcuA0Ocz9xrUDnw-23" target="OdnS9hcuA0Ocz9xrUDnw-26">
          <mxGeometry relative="1" as="geometry">
            <mxPoint x="320" y="450" as="sourcePoint" />
            <mxPoint x="410" y="615" as="targetPoint" />
            <Array as="points">
              <mxPoint x="755" y="355" />
            </Array>
          </mxGeometry>
        </mxCell>
        <mxCell id="OdnS9hcuA0Ocz9xrUDnw-38" value="没有兴趣、学不下去" style="edgeLabel;html=1;align=center;verticalAlign=middle;resizable=0;points=[];" vertex="1" connectable="0" parent="OdnS9hcuA0Ocz9xrUDnw-36">
          <mxGeometry x="-0.2917" y="-1" relative="1" as="geometry">
            <mxPoint x="-226" y="1" as="offset" />
          </mxGeometry>
        </mxCell>
        <mxCell id="OdnS9hcuA0Ocz9xrUDnw-42" style="edgeStyle=orthogonalEdgeStyle;rounded=0;orthogonalLoop=1;jettySize=auto;html=1;entryX=0.5;entryY=0;entryDx=0;entryDy=0;dashed=1;exitX=0.5;exitY=0;exitDx=0;exitDy=0;" edge="1" parent="1" source="OdnS9hcuA0Ocz9xrUDnw-23" target="OdnS9hcuA0Ocz9xrUDnw-11">
          <mxGeometry relative="1" as="geometry">
            <Array as="points">
              <mxPoint x="755" y="195" />
              <mxPoint x="505" y="195" />
            </Array>
          </mxGeometry>
        </mxCell>
        <mxCell id="OdnS9hcuA0Ocz9xrUDnw-43" value="继续尝试c++" style="edgeLabel;html=1;align=center;verticalAlign=middle;resizable=0;points=[];" vertex="1" connectable="0" parent="OdnS9hcuA0Ocz9xrUDnw-42">
          <mxGeometry x="-0.4105" y="-2" relative="1" as="geometry">
            <mxPoint as="offset" />
          </mxGeometry>
        </mxCell>
        <mxCell id="OdnS9hcuA0Ocz9xrUDnw-50" style="edgeStyle=orthogonalEdgeStyle;rounded=0;orthogonalLoop=1;jettySize=auto;html=1;entryX=0;entryY=0.5;entryDx=0;entryDy=0;" edge="1" parent="1" source="OdnS9hcuA0Ocz9xrUDnw-23" target="OdnS9hcuA0Ocz9xrUDnw-51">
          <mxGeometry relative="1" as="geometry">
            <mxPoint x="890" y="250" as="targetPoint" />
          </mxGeometry>
        </mxCell>
        <mxCell id="OdnS9hcuA0Ocz9xrUDnw-23" value="python" style="rhombus;whiteSpace=wrap;html=1;fillColor=#ffe6cc;strokeColor=#d79b00;" vertex="1" parent="1">
          <mxGeometry x="710" y="215" width="90" height="70" as="geometry" />
        </mxCell>
        <mxCell id="OdnS9hcuA0Ocz9xrUDnw-48" style="edgeStyle=orthogonalEdgeStyle;rounded=0;orthogonalLoop=1;jettySize=auto;html=1;entryX=0;entryY=0.5;entryDx=0;entryDy=0;dashed=1;" edge="1" parent="1" source="OdnS9hcuA0Ocz9xrUDnw-26" target="OdnS9hcuA0Ocz9xrUDnw-11">
          <mxGeometry relative="1" as="geometry">
            <Array as="points">
              <mxPoint x="275" y="250" />
            </Array>
          </mxGeometry>
        </mxCell>
        <mxCell id="OdnS9hcuA0Ocz9xrUDnw-49" value="继续尝试c++" style="edgeLabel;html=1;align=center;verticalAlign=middle;resizable=0;points=[];" vertex="1" connectable="0" parent="OdnS9hcuA0Ocz9xrUDnw-48">
          <mxGeometry x="-0.7098" y="2" relative="1" as="geometry">
            <mxPoint as="offset" />
          </mxGeometry>
        </mxCell>
        <mxCell id="OdnS9hcuA0Ocz9xrUDnw-26" value="scratch" style="rhombus;whiteSpace=wrap;html=1;fillColor=#ffe6cc;strokeColor=#d79b00;" vertex="1" parent="1">
          <mxGeometry x="230" y="320" width="90" height="70" as="geometry" />
        </mxCell>
        <mxCell id="OdnS9hcuA0Ocz9xrUDnw-46" value="" style="endArrow=classic;html=1;rounded=0;exitX=0.5;exitY=1;exitDx=0;exitDy=0;entryX=0;entryY=0.5;entryDx=0;entryDy=0;" edge="1" parent="1" source="OdnS9hcuA0Ocz9xrUDnw-26" target="OdnS9hcuA0Ocz9xrUDnw-15">
          <mxGeometry width="50" height="50" relative="1" as="geometry">
            <mxPoint x="440" y="510" as="sourcePoint" />
            <mxPoint x="490" y="460" as="targetPoint" />
            <Array as="points">
              <mxPoint x="275" y="470" />
            </Array>
          </mxGeometry>
        </mxCell>
        <mxCell id="OdnS9hcuA0Ocz9xrUDnw-51" value="竞赛--&amp;gt;获奖证书" style="rounded=1;whiteSpace=wrap;html=1;fillColor=#d5e8d4;strokeColor=#82b366;" vertex="1" parent="1">
          <mxGeometry x="890" y="230" width="110" height="40" as="geometry" />
        </mxCell>
        <mxCell id="OdnS9hcuA0Ocz9xrUDnw-55" style="edgeStyle=orthogonalEdgeStyle;rounded=0;orthogonalLoop=1;jettySize=auto;html=1;entryX=0;entryY=0.5;entryDx=0;entryDy=0;" edge="1" parent="1" source="OdnS9hcuA0Ocz9xrUDnw-52" target="OdnS9hcuA0Ocz9xrUDnw-53">
          <mxGeometry relative="1" as="geometry" />
        </mxCell>
        <mxCell id="OdnS9hcuA0Ocz9xrUDnw-56" style="edgeStyle=orthogonalEdgeStyle;rounded=0;orthogonalLoop=1;jettySize=auto;html=1;entryX=0;entryY=0.5;entryDx=0;entryDy=0;" edge="1" parent="1" source="OdnS9hcuA0Ocz9xrUDnw-52" target="OdnS9hcuA0Ocz9xrUDnw-54">
          <mxGeometry relative="1" as="geometry" />
        </mxCell>
        <mxCell id="OdnS9hcuA0Ocz9xrUDnw-52" value="七龙珠招生" style="rounded=1;whiteSpace=wrap;html=1;fillColor=#dae8fc;strokeColor=#6c8ebf;" vertex="1" parent="1">
          <mxGeometry x="75" y="570" width="90" height="40" as="geometry" />
        </mxCell>
        <mxCell id="OdnS9hcuA0Ocz9xrUDnw-53" value="七龙珠特长生招生考试" style="rounded=1;whiteSpace=wrap;html=1;fillColor=#d5e8d4;strokeColor=#82b366;" vertex="1" parent="1">
          <mxGeometry x="240" y="520" width="90" height="40" as="geometry" />
        </mxCell>
        <mxCell id="OdnS9hcuA0Ocz9xrUDnw-54" value="各种获奖证书 加分" style="rounded=1;whiteSpace=wrap;html=1;fillColor=#d5e8d4;strokeColor=#82b366;" vertex="1" parent="1">
          <mxGeometry x="240" y="600" width="110" height="40" as="geometry" />
        </mxCell>
        <mxCell id="OdnS9hcuA0Ocz9xrUDnw-57" value="奥数，对学习&lt;div&gt;c++有帮助&lt;/div&gt;" style="shape=document;whiteSpace=wrap;html=1;boundedLbl=1;dashed=1;fillColor=#f8cecc;strokeColor=#b85450;" vertex="1" parent="1">
          <mxGeometry x="340" y="120" width="120" height="50" as="geometry" />
        </mxCell>
        <mxCell id="OdnS9hcuA0Ocz9xrUDnw-58" value="" style="shape=flexArrow;endArrow=classic;html=1;rounded=0;fillColor=#f8cecc;strokeColor=#b85450;entryX=0.344;entryY=0.229;entryDx=0;entryDy=0;entryPerimeter=0;" edge="1" parent="1" source="OdnS9hcuA0Ocz9xrUDnw-57" target="OdnS9hcuA0Ocz9xrUDnw-11">
          <mxGeometry width="50" height="50" relative="1" as="geometry">
            <mxPoint x="260" y="230" as="sourcePoint" />
            <mxPoint x="470" y="210" as="targetPoint" />
          </mxGeometry>
        </mxCell>
      </root>
    </mxGraphModel>
  </diagram>
</mxfile>
